# xmcd
# 
# Track frame offsets:
#     150
#     16104
#     29908
#     47755
#     67295
#     79731
#     98272
#     114272
#     131093
#     150694
#     168781
#     182100
#     197848
#     215683
#     230741
# 
# Disc length: 3301
# 
# Revision: 4
# Processed by: cddbd v1.5.2PL0 Copyright (c) Steve Scherf et al.
# Submitted via: BonkEnc v1.0
# 
DISCID=cd0ce30f
DTITLE=Gary Allan - Greatest Hits
DYEAR=2007
DGENRE=Country
TTITLE0=A Feelin' Like That
TTITLE1=Right Where I Need To Be
TTITLE2=Songs About Rain
TTITLE3=Smoke Rings In The Dark
TTITLE4=Her Man
TTITLE5=Best I Ever Had
TTITLE6=Nothing On But The Radio
TTITLE7=Man To Man
TTITLE8=The One
TTITLE9=Lovin' You Against My Will
TTITLE10=It Would Be You
TTITLE11=Man Of Me
TTITLE12=Tough Little Boys
TTITLE13=As The Crow Flies
TTITLE14=Life Ain't Always Beautiful
EXTD=
EXTT0=
EXTT1=
EXTT2=
EXTT3=
EXTT4=
EXTT5=
EXTT6=
EXTT7=
EXTT8=
EXTT9=
EXTT10=
EXTT11=
EXTT12=
EXTT13=
EXTT14=
PLAYORDER=
